<svg xmlns="http://www.w3.org/2000/svg" version="1.1" xmlns:xlink="http://www.w3.org/1999/xlink" xmlns:svgjs="http://svgjs.dev/svgjs" width="1440" height="560" preserveAspectRatio="none" viewBox="0 0 1440 560"><g mask="url(&quot;#SvgjsMask1002&quot;)" fill="none"><path d="M35 140C35 137.26 3.64 149.2 0 134.62C-13.86 79.2 -34.31 33 0 0C35.69 -34.31 70 0 140 0C210 0 210 0 280 0C350 0 350 0 420 0C490 0 490 0 560 0C630 0 630 0 700 0C770 0 770 0 840 0C910 0 910 0 980 0C1050 0 1050 0 1120 0C1190 0 1190 0 1260 0C1330 0 1330 0 1400 0C1470 0 1505 -35 1540 0C1575 35 1540 70 1540 140C1540 200.2 1563.27 260.4 1540 260.4C1508.55 260.4 1485.97 199.53 1430.55 140C1415.97 124.33 1419.46 117.67 1400 110C1334.18 84.07 1314.04 62.7 1260 72.8C1233.79 77.7 1239.51 107.83 1239.51 140C1239.51 157.28 1247.48 157.66 1260 171.7C1309.9 227.66 1330.9 216.22 1364.36 280C1396.04 340.37 1374.87 350.81 1390.28 420C1392.69 430.81 1390.26 435.45 1400 440C1465.12 470.45 1492.41 449.21 1540 490C1562.41 509.21 1563.33 548.33 1540 560C1493.33 583.33 1470 560 1400 560C1330 560 1330 560 1260 560C1190 560 1190 560 1120 560C1050 560 1050 560 980 560C910 560 910 560 840 560C772.91 560 767.37 567.69 705.83 560C697.37 558.94 708.44 544.48 700 542.5C635.52 527.34 630.14 527.17 560 525.71C490.14 524.26 485.01 522.42 420 536.67C406.78 539.57 416.67 557.81 403.53 560C346.67 569.47 341.76 560 280 560C210 560 210 560 140 560C70 560 35 595 0 560C-35 525 0 490 0 420C0 350 0 350 0 280C0 212.8 -13.85 200.99 0 145.6C3.65 130.99 35 142.75 35 140" stroke="rgba(51, 121, 194, 0.58)" stroke-width="2"></path><path d="M980 120.28C970.73 120.28 961.08 129.01 961.08 140C961.08 155.15 970.81 172.56 980 172.56C989.02 172.56 997.5 155.26 997.5 140C997.5 129.12 988.94 120.28 980 120.28" stroke="rgba(51, 121, 194, 0.58)" stroke-width="2"></path><path d="M700 233.33C691.88 233.33 689.37 256.95 689.37 280C689.37 295.84 692.22 311.11 700 311.11C709.2 311.11 723.33 296.61 723.33 280C723.33 257.72 708.86 233.33 700 233.33" stroke="rgba(51, 121, 194, 0.58)" stroke-width="2"></path><path d="M280 400C231.99 400 183.08 402.85 183.08 420C183.08 439.1 233.82 472.5 280 472.5C315.44 472.5 346.32 439.93 346.32 420C346.32 403.68 313.61 400 280 400" stroke="rgba(51, 121, 194, 0.58)" stroke-width="2"></path><path d="M840 359.25C800.48 359.25 766.82 394.16 766.82 420C766.82 442.04 802.18 455 840 455C894.28 455 951.03 442.94 951.03 420C951.03 395.06 892.59 359.25 840 359.25" stroke="rgba(51, 121, 194, 0.58)" stroke-width="2"></path><path d="M1120 416C1103.19 416 1085 410.46 1085 420C1085 435.8 1109.17 466.67 1120 466.67C1128.7 466.67 1124.06 442.59 1124.06 420C1124.06 417.25 1122.72 416 1120 416" stroke="rgba(51, 121, 194, 0.58)" stroke-width="2"></path><path d="M140 56.76C83.2 13.69 0 14.73 0 0C0 -13.65 70 0 140 0C210 0 210 0 280 0C350 0 350 0 420 0C458.38 0 460.71 -9.01 496.77 0C530.71 8.49 528.74 35 560 35C589.18 35 586.13 7.88 617.65 0C656.13 -9.62 658.83 0 700 0C770 0 770 0 840 0C910 0 910 0 980 0C1050 0 1050 0 1120 0C1172.13 0 1208.04 -29.56 1224.26 0C1246.45 40.44 1186.99 74.53 1196.83 140C1204.86 193.4 1225.47 191.21 1260 237.74C1277.42 261.21 1289.01 253.85 1300.73 280C1329.85 344.98 1315.75 352.11 1341.67 420C1365.38 482.11 1359.34 493.33 1400 540C1420.33 563.33 1463.64 554.88 1463.64 560C1463.64 564.88 1431.82 560 1400 560C1368.18 560 1367.74 563.92 1336.36 560C1297.74 555.17 1287.81 566.6 1260 542.5C1207.02 496.6 1220.97 478.23 1174.78 420C1150.97 389.98 1153.47 382.93 1120 366C1056.08 333.67 1050.99 339.93 980 321.48C910.99 303.54 908.45 311.02 840 293.21C828.73 290.28 827.14 289.6 820.56 280C774.64 212.99 778.12 209.79 735 140C717.84 112.22 717.15 84.85 700 84.85C683.11 84.85 675.49 109.54 666.91 140C648.02 207.11 645.54 209.93 645.06 280C644.58 349.93 688.88 371.07 665 420C646.35 458.22 610.88 454.29 560 454.29C527.27 454.29 528.42 437.95 497.78 420C458.42 396.94 462.47 387 420 372.27C353.58 349.22 350.53 348.17 280 344.44C210.53 340.76 205.25 372.75 140 357.45C67.85 340.53 5.19 318.42 5.19 280C5.19 241.78 80.4 250.67 140 204.17C170.12 180.67 184.64 173.38 184.64 140C184.64 99.67 175.52 83.69 140 56.76" stroke="rgba(51, 121, 194, 0.58)" stroke-width="2"></path><path d="M980 70.99C947.56 70.99 913.78 101.53 913.78 140C913.78 193.01 947.84 253.95 980 253.95C1011.57 253.95 1041.25 193.4 1041.25 140C1041.25 101.92 1011.3 70.99 980 70.99" stroke="rgba(51, 121, 194, 0.58)" stroke-width="2"></path><path d="M1400 47.5C1361.64 17.66 1314.19 12.67 1314.19 0C1314.19 -11.08 1357.1 0 1400 0C1470 0 1505 -35 1540 0C1575 35 1540 70 1540 140C1540 165.2 1549.74 190.4 1540 190.4C1526.83 190.4 1518.01 164.32 1494.18 140C1448.01 92.87 1451.63 87.66 1400 47.5" stroke="rgba(51, 121, 194, 0.58)" stroke-width="2"></path><path d="M84 560C84 556.92 112.82 547.83 140 547.83C152.48 547.83 163.33 556.77 163.33 560C163.33 562.86 151.67 560 140 560C112 560 84 563.01 84 560" stroke="rgba(51, 121, 194, 0.58)" stroke-width="2"></path><path d="M754.44 560C754.44 541.27 791.17 513.06 840 493.04C903.95 466.81 919.77 449.91 980 467.5C1034.42 483.39 1069.31 532.71 1069.31 560C1069.31 578.96 1024.65 560 980 560C910 560 910 560 840 560C797.22 560 754.44 574.75 754.44 560" stroke="rgba(51, 121, 194, 0.58)" stroke-width="2"></path><path d="M235.36 140C261.36 98.2 250.67 52 280 52C316.99 52 332.22 90.15 368 140C402.22 187.68 392.3 247.06 420 247.06C448.64 247.06 440.24 183.19 480.67 140C510.24 108.41 523.38 97.5 560 97.5C584.68 97.5 597.11 112.42 603.27 140C617.49 203.67 613.47 212.6 600.76 280C591.84 327.32 594.44 367.01 560 369.44C504.06 373.38 494.57 314.18 420 292.73C354.57 273.91 349.98 291.33 280 288.89C209.98 286.45 209.62 287.24 140 282.98C137.03 282.8 134.81 281.48 134.81 280C134.81 278.53 138.27 279.49 140 277.08C188.54 209.49 191.36 210.74 235.36 140" stroke="rgba(51, 121, 194, 0.58)" stroke-width="2"></path><path d="M802.31 140C781.35 73.43 764.67 48.69 777.78 0C783.52 -21.31 808.89 0 840 0C910 0 910 0 980 0C1050 0 1050 0 1120 0C1134.89 0 1146.8 -12.28 1149.79 0C1163.87 57.72 1138.91 72.86 1154.15 140C1170.68 212.86 1223.63 226.93 1213.33 280C1206.55 314.93 1165.8 316 1120 316C1083.14 316 1054.25 311.44 1048 280C1036.75 223.44 1101.25 201.73 1085 140C1067.25 72.57 1033.65 21.69 980 21.69C924.39 21.69 916.96 76.57 866.49 140C846.96 164.55 855.39 197.65 840 197.65C823.3 197.65 812.46 172.26 802.31 140" stroke="rgba(51, 121, 194, 0.58)" stroke-width="2"></path><path d="M1225.51 420C1225.51 376.37 1243.07 328.46 1260 328.46C1276.84 328.46 1293.06 376.24 1293.06 420C1293.06 446.8 1276.77 469.58 1260 469.58C1243 469.58 1225.51 446.93 1225.51 420" stroke="rgba(51, 121, 194, 0.58)" stroke-width="2"></path><path d="M803.06 560C803.06 551.91 817.8 534.85 840 531.09C906.27 519.85 914.91 518.86 980 530C999.39 533.32 1008.97 551.15 1008.97 560C1008.97 566.15 994.49 560 980 560C910 560 910 560 840 560C821.53 560 803.06 566.37 803.06 560" stroke="rgba(51, 121, 194, 0.58)" stroke-width="2"></path></g><defs><mask id="SvgjsMask1002"><rect width="1440" height="560" fill="#ffffff"></rect></mask></defs></svg>